<?xml version="1.0" encoding="UTF-8"?>
<svg id="katman_1" xmlns="http://www.w3.org/2000/svg" xmlns:xlink="http://www.w3.org/1999/xlink" version="1.1" viewBox="0 0 970 800">
  <!-- Generator: Adobe Illustrator 30.3.0, SVG Export Plug-In . SVG Version: 2.1.3 Build 182)  -->
  <defs>
    <style>
      .st0 {
        fill: #363f23;
      }

      .st1, .st2 {
        isolation: isolate;
      }

      .st3 {
        fill: #ec8f17;
      }

      .st4 {
        fill: url(#Adsız_degrade_2);
      }

      .st4, .st5 {
        fill-rule: evenodd;
      }

      .st5, .st6 {
        fill: #414d29;
      }

      .st2 {
        fill: #e0770c;
        font-family: PlayfairDisplay-Regular, 'Playfair Display';
        font-size: 35.13px;
      }
    </style>
    <linearGradient id="Adsız_degrade_2" data-name="Adsız degrade 2" x1="455.63" y1="636.11" x2="455.63" y2="172.84" gradientTransform="translate(-14.19 24) rotate(-3.15) scale(1.02) skewX(-.39)" gradientUnits="userSpaceOnUse">
      <stop offset="0" stop-color="#ac5918"/>
      <stop offset=".14" stop-color="#d47911"/>
      <stop offset=".22" stop-color="#db8015"/>
      <stop offset=".4" stop-color="#ea8f1e"/>
      <stop offset=".5" stop-color="#ee9f3c"/>
      <stop offset=".63" stop-color="#f1ae59"/>
      <stop offset=".76" stop-color="#f4ba6f"/>
      <stop offset=".88" stop-color="#f6c07b"/>
      <stop offset="1" stop-color="#f7c380"/>
    </linearGradient>
  </defs>
  <path class="st4" d="M652.78,421.49c-85.44,99.34-238.4,114.13-341.63,33.02-84.7-66.54-109.56-176.92-68.6-269.27-.25.31-.52.59-.78.89-103.17,119.94-85.75,296.53,38.88,394.43,124.65,97.91,309.32,80.07,412.48-39.88,93.73-108.96,87.91-264.69-7.4-365.7,38.34,78.48,28.77,174.73-32.97,246.5h.02Z"/>
  <g>
    <path class="st5" d="M511.11,697.76s60.38-75.87,227.42-54.53l59.54-211.8s-12.41-9.49-23.98-8.69l3.31-23.71s34.73,1.58,60.38,11.85l-71.94,267.12s-162.09-32.39-254.7,19.76h-.02Z"/>
    <path class="st5" d="M535.03,712.38s148.11-24.6,245.79,40.64l147.58-238.4s-52.08-33.89-90.65-32.62l-3.89,14.69,52.53,27.48-114.5,192.73s-127.62-62.74-236.86-4.53h0v.02h0Z"/>
  </g>
  <g>
    <path class="st5" d="M434.19,695.98s-60.38-75.87-227.42-54.53l-59.54-211.8s12.41-9.49,23.98-8.69l-3.31-23.71s-34.73,1.58-60.38,11.85l71.94,267.12s162.09-32.39,254.7,19.76h.02Z"/>
    <path class="st5" d="M410.28,710.6s-148.11-24.6-245.79,40.64L16.91,512.86s52.08-33.89,90.65-32.62l3.89,14.69-52.53,27.48,114.5,192.73s127.62-62.74,236.86-4.53h0v.02h0v-.02Z"/>
  </g>
  <path class="st6" d="M398.1,218.79l.19-14.97c0-.24-.12-.48-.34-.61l-12.81-8.64c-.54-.36-.4-1.14.21-1.32l14.96-4.45c.24-.06.44-.25.52-.5l4.65-14.31c.19-.59,1.02-.71,1.4-.2l9.05,12.22c.15.19.4.32.65.32l15.66-.19c.65,0,1.04.69.63,1.2l-9.37,12.01c-.15.19-.19.44-.11.69l5.03,14.18c.2.59-.37,1.15-.99.94l-14.85-4.8c-.24-.07-.51-.04-.71.11l-12.56,8.96c-.52.37-1.26,0-1.25-.6h.04-.02Z"/>
  <path class="st6" d="M479.59,189.69l.19-14.97c0-.24-.12-.48-.34-.61l-12.81-8.64c-.54-.36-.4-1.14.21-1.32l14.96-4.45c.24-.06.44-.25.52-.5l4.65-14.31c.19-.59,1.02-.71,1.4-.2l9.05,12.22c.15.19.4.32.65.32l15.66-.19c.65,0,1.04.69.63,1.2l-9.37,12.01c-.15.19-.19.44-.11.69l5.03,14.18c.2.59-.37,1.15-.99.94l-14.85-4.8c-.24-.07-.51-.04-.71.11l-12.56,8.96c-.52.37-1.26,0-1.25-.6h.04-.02Z"/>
  <path class="st6" d="M520.22,221.07l-3.43-14.61c-.06-.23-.23-.44-.47-.54l-14.53-5.57c-.6-.23-.67-1.03-.11-1.34l13.47-7.63c.21-.13.36-.35.39-.59l1.06-14.95c.05-.61.81-.93,1.3-.51l11.76,9.9c.19.17.45.22.7.17l15.21-3.66c.63-.16,1.16.44.91,1.03l-6.22,13.75c-.1.22-.08.49.05.69l8.33,12.69c.35.53-.08,1.2-.73,1.14l-15.6-1.41c-.25-.02-.51.06-.67.25l-10.07,11.49c-.42.48-1.23.3-1.36-.32v.02h.03-.01Z"/>
  <path class="st6" d="M624.33,166.07l-9.62-11.82c-.16-.18-.41-.31-.67-.3l-15.63.88c-.65.04-1.06-.66-.69-1.16l8.8-12.4c.15-.19.17-.47.08-.69l-5.7-13.95c-.23-.57.32-1.16.94-.99l15.06,4.17c.24.06.51,0,.71-.14l12.12-9.5c.5-.39,1.25-.06,1.28.56l.52,14.97c0,.24.15.48.36.6l13.21,8.08c.55.33.45,1.12-.16,1.34l-14.73,5.1c-.24.07-.42.26-.5.51l-3.95,14.48c-.16.6-.98.75-1.39.26v-.02h-.03v.03Z"/>
  <path class="st6" d="M417.86,93.36l-10.51-11.12c-.17-.18-.44-.26-.69-.23l-15.55,1.97c-.65.07-1.1-.57-.78-1.11l7.83-12.98c.12-.2.14-.48.02-.69l-6.76-13.51c-.3-.56.23-1.18.87-1.06l15.33,3.09c.24.05.51-.02.7-.18l11.36-10.32c.47-.43,1.25-.16,1.31.47l1.66,14.89c.02.24.17.47.41.57l13.78,7.13c.56.31.54,1.09-.05,1.34l-14.31,6.12c-.23.1-.41.32-.44.55l-2.83,14.73c-.11.6-.92.84-1.35.37h.03-.03Z"/>
  <path class="st6" d="M518.46,92.62l.06-14.98c0-.24-.12-.48-.34-.61l-12.87-8.55c-.54-.36-.41-1.14.2-1.32l14.92-4.57c.24-.06.44-.25.51-.5l4.54-14.34c.18-.59,1-.72,1.4-.22l9.15,12.16c.15.19.4.32.66.32l15.66-.32c.65,0,1.04.69.65,1.18l-9.26,12.09c-.15.19-.19.47-.11.69l5.16,14.15c.2.57-.37,1.15-.98.96l-14.88-4.7c-.24-.07-.51-.04-.71.12l-12.47,9.06c-.52.38-1.26.02-1.25-.6v.02h0l-.03-.03Z"/>
  <path class="st6" d="M441.59,189.99l-4.19-14.44c-.06-.23-.25-.43-.5-.51l-14.82-4.9c-.6-.19-.71-.99-.17-1.32l13.08-8.25c.2-.13.35-.37.35-.6l.31-14.97c0-.61.76-.96,1.28-.56l12.26,9.33c.19.16.47.19.71.13l15-4.36c.61-.18,1.19.41.96.98l-5.5,14.02c-.08.22-.06.49.08.69l8.97,12.28c.37.51-.02,1.21-.69,1.17l-15.65-.67c-.25,0-.51.1-.66.31l-9.45,11.95c-.4.5-1.2.35-1.39-.24h0v-.02h.03Z"/>
  <path class="st6" d="M308.61,160.66l-1.2-14.93c-.02-.24-.16-.47-.39-.59l-13.57-7.51c-.56-.32-.51-1.1.1-1.34l14.48-5.71c.23-.1.41-.31.47-.54l3.29-14.65c.14-.6.94-.81,1.36-.33l10.16,11.4c.16.18.42.3.69.25l15.59-1.54c.65-.06,1.09.6.74,1.14l-8.21,12.75c-.14.2-.15.48-.05.69l6.35,13.7c.25.56-.26,1.17-.91,1.04l-15.23-3.52c-.24-.06-.52,0-.7.17l-11.68,10c-.49.42-1.25.12-1.3-.5h0Z"/>
  <path class="st6" d="M443.74,137.64l3.33-27.03c.05-.44-.12-.89-.47-1.18l-21.41-17.96c-.9-.74-.5-2.14.66-2.35l27.94-5.32c.45-.07.85-.39,1.04-.79l11.24-24.99c.47-1.04,1.98-1.11,2.56-.13l13.93,23.74c.21.39.65.66,1.11.69l28.35,2.51c1.18.11,1.7,1.45.92,2.27l-19.32,20c-.32.33-.44.78-.35,1.22l6.28,26.56c.25,1.1-.92,2.01-1.99,1.54l-25.86-11.39c-.42-.18-.92-.17-1.32.06l-24.48,13.91c-1.02.57-2.28-.2-2.15-1.32h0v-.02h-.01Z"/>
  <path class="st6" d="M511.59,139.52l21.24-18.14c.35-.31.52-.74.45-1.18l-3.6-27c-.15-1.11,1.1-1.92,2.14-1.35l24.6,13.7c.41.22.91.24,1.32.06l25.75-11.61c1.06-.49,2.24.42,2,1.52l-6.02,26.61c-.1.44.04.89.36,1.22l19.52,19.82c.81.82.3,2.17-.9,2.28l-28.33,2.75c-.47.05-.89.32-1.1.69l-13.7,23.86c-.56.98-2.07.93-2.56-.11l-11.49-24.91c-.18-.42-.58-.69-1.05-.78l-27.99-5.08c-1.15-.2-1.56-1.6-.69-2.34h-.02.02l.04-.02Z"/>
  <path class="st6" d="M573.72,235.45l7.25-26.32c.12-.44,0-.89-.31-1.23l-18.58-20.62c-.76-.86-.17-2.19,1-2.24l28.44-1.54c.47-.02.9-.26,1.14-.66l14.81-23.26c.6-.96,2.13-.85,2.55.2l10.32,25.36c.17.42.55.72,1,.84l27.73,6.26c1.15.25,1.49,1.66.56,2.38l-22.05,17.22c-.36.3-.56.72-.52,1.16l2.34,27.12c.1,1.12-1.19,1.85-2.19,1.25l-23.95-14.72c-.4-.23-.9-.3-1.31-.11l-26.27,10.5c-1.09.44-2.23-.51-1.93-1.6l-.04-.02h0l.02.02Z"/>
  <path class="st6" d="M339.49,141.58l20.18-19.21c.34-.32.49-.77.4-1.21l-5.11-26.77c-.2-1.11,1-1.97,2.05-1.46l25.35,12.41c.42.19.92.19,1.32,0l25.07-12.92c1.05-.54,2.26.31,2.08,1.42l-4.51,26.87c-.06.44.08.89.42,1.2l20.6,18.78c.86.78.4,2.16-.76,2.32l-28.14,4.2c-.45.06-.86.36-1.06.75l-12.33,24.53c-.51,1.03-2.03,1.04-2.56.02l-12.87-24.28c-.2-.41-.61-.68-1.08-.73l-28.23-3.63c-1.16-.16-1.65-1.52-.82-2.31l.04.02-.02.02h0v-.02Z"/>
  <path class="st6" d="M312.02,239.68l2.36-27.12c.04-.44-.15-.88-.52-1.16l-22.04-17.23c-.92-.71-.56-2.13.56-2.38l27.73-6.24c.45-.11.84-.42,1-.84l10.33-25.36c.44-1.06,1.94-1.17,2.55-.2l14.77,23.27c.24.38.67.62,1.14.66l28.44,1.57c1.18.06,1.76,1.4.99,2.25l-18.59,20.61c-.32.35-.42.81-.31,1.23l7.23,26.33c.31,1.09-.85,2.04-1.93,1.6l-26.25-10.54c-.44-.18-.94-.13-1.31.11l-23.97,14.71c-.99.6-2.28-.13-2.19-1.25h-.02.04Z"/>
  <g>
    <path class="st3" d="M367.13,300.17v76.95c0,4.98,4.27,8.63,9.31,8.89.56.02,1.13.07,1.69.13.61.06,1.24.13,1.85.19-2.82-.32.75.12,1.26.2,5.44.93,10.81,2.1,16.1,3.66,17.83,5.18,34.38,13.99,48.65,25.46,9.1,7.32,22.35-5.2,13.17-12.59-22.72-18.23-52.43-33.31-82.7-34.86l9.31,8.89v-76.95c0-11.44-18.6-11.46-18.6,0h-.04v.02Z"/>
    <path class="st3" d="M472.74,441.82c.47-.67.99-1.3,1.49-1.96.85-1.11-.11.14-.42.53.37-.44.71-.89,1.1-1.31.92-1.06,1.83-2.13,2.78-3.17,5.24-5.76,10.98-11.1,17.11-15.96,17.97-14.24,40.2-23.6,63.58-25.03,5.02-.32,9.31-3.82,9.31-8.89v-85.82c0-11.44-18.6-11.46-18.6,0v85.82l9.31-8.89c-39.83,2.45-79.13,24.06-101.72,55.72-6.76,9.49,9.35,18.39,16.06,8.97h.01Z"/>
  </g>
  <g>
    <path class="st0" d="M400.96,264.1v75.05c0,4.29,2.96,7.06,6.83,8.58-1.19-.47-1.93-.82.26.13,2.07.91,4.14,1.81,6.19,2.78,6.24,2.96,12.32,6.25,18.12,9.93,10.92,6.92,25.27,17.61,25.77,30.93.44,11.4,19.05,11.46,18.6,0-1.18-30.72-37.57-50.62-64.02-60.93l6.83,8.58v-75.05c0-11.44-18.6-11.46-18.6,0h.02Z"/>
    <path class="st0" d="M515.27,265.28v75.05l6.83-8.58c-26.46,10.3-62.83,30.23-64.02,60.93-.44,11.44,18.17,11.42,18.6,0,.51-13.33,14.86-24.03,25.77-30.93,5.69-3.61,11.62-6.83,17.72-9.73,2.08-.99,4.2-1.95,6.32-2.87s2.25-.92.52-.23c3.85-1.51,6.83-4.33,6.83-8.58v-75.05c0-11.44-18.6-11.46-18.6,0h.03Z"/>
  </g>
  <path class="st0" d="M477.84,386.45v-100.26c0-11.44-18.6-11.46-18.6,0v100.26c0,11.44,18.6,11.46,18.6,0h0Z"/>
  <ellipse class="st0" cx="468.53" cy="287.23" rx="28.2" ry="26.95"/>
  <g class="st1">
    <g class="st1">
      <g class="st1">
        <g class="st1">
          <text class="st2" transform="translate(433.05 243.57) scale(1.05 1)"><tspan x="0" y="0">2017</tspan></text>
        </g>
      </g>
    </g>
  </g>
</svg>