<?xml version="1.0" encoding="UTF-8"?>
<svg id="katman_1" xmlns="http://www.w3.org/2000/svg" xmlns:xlink="http://www.w3.org/1999/xlink" version="1.1" viewBox="0 0 1700 1000">
  <!-- Generator: Adobe Illustrator 30.3.0, SVG Export Plug-In . SVG Version: 2.1.3 Build 182)  -->
  <defs>
    <style>
      .st0 {
        fill: #363f23;
      }

      .st1 {
        font-family: PlayfairDisplay-Black, 'Playfair Display';
        font-size: 82.72px;
        font-weight: 800;
      }

      .st1, .st2, .st3, .st4 {
        fill: #414d29;
      }

      .st2 {
        font-family: PlayfairDisplay-Bold, 'Playfair Display';
        font-size: 22px;
        font-weight: 700;
        letter-spacing: .57em;
      }

      .st5 {
        fill: #e0770c;
        font-family: PlayfairDisplay-Regular, 'Playfair Display';
        font-size: 29.64px;
      }

      .st6 {
        fill: #ec8f17;
      }

      .st3, .st7 {
        fill-rule: evenodd;
      }

      .st7 {
        fill: url(#linear-gradient);
      }
    </style>
    <linearGradient id="linear-gradient" x1="816.48" y1="629.32" x2="816.48" y2="239" gradientTransform="translate(-25.83 38.39) rotate(-3.15) scale(1.02) skewX(-.39)" gradientUnits="userSpaceOnUse">
      <stop offset="0" stop-color="#ac5918"/>
      <stop offset=".14" stop-color="#d47911"/>
      <stop offset=".22" stop-color="#db8015"/>
      <stop offset=".4" stop-color="#ea8f1e"/>
      <stop offset=".5" stop-color="#ee9f3c"/>
      <stop offset=".63" stop-color="#f1ae59"/>
      <stop offset=".76" stop-color="#f4ba6f"/>
      <stop offset=".88" stop-color="#f6c07b"/>
      <stop offset="1" stop-color="#f7c380"/>
    </linearGradient>
  </defs>
  <path class="st7" d="M970.42,444.2c-68.88,83.8-192.19,96.27-275.41,27.86-68.28-56.13-88.32-149.24-55.3-227.15-.21.25-.42.5-.63.75-83.17,101.18-69.13,250.15,31.35,332.74,100.48,82.6,249.36,67.54,332.52-33.64,75.56-91.92,70.87-223.29-5.97-308.5,30.91,66.21,23.19,147.4-26.57,207.94Z"/>
  <g>
    <path class="st3" d="M856.22,677.25s48.67-64,183.33-46l48-178.67s-10-8-19.33-7.33l2.67-20s28,1.33,48.67,10l-58,225.33s-130.67-27.33-205.33,16.67Z"/>
    <path class="st3" d="M875.5,689.59s119.4-20.75,198.15,34.29l118.97-201.11s-41.98-28.59-73.07-27.52l-3.14,12.39,42.34,23.17-92.3,162.58s-102.88-52.92-190.95-3.81Z"/>
  </g>
  <g>
    <path class="st3" d="M794.2,675.75s-48.67-64-183.33-46l-48-178.67s10-8,19.33-7.33l-2.67-20s-28,1.33-48.67,10l58,225.33s130.67-27.33,205.33,16.67Z"/>
    <path class="st3" d="M774.92,688.09s-119.4-20.75-198.15,34.29l-118.97-201.11s41.98-28.59,73.07-27.52l3.14,12.39-42.34,23.17,92.3,162.58s102.88-52.92,190.95-3.81Z"/>
  </g>
  <path class="st4" d="M765.1,273.2l.16-12.63c0-.21-.1-.4-.27-.52l-10.32-7.29c-.43-.3-.32-.96.18-1.12l12.06-3.76c.2-.06.35-.22.42-.42l3.75-12.07c.16-.5.82-.6,1.12-.18l7.3,10.31c.12.17.32.27.52.27l12.63-.17c.52,0,.83.59.51,1.01l-7.55,10.13c-.12.17-.16.38-.09.58l4.06,11.96c.17.5-.3.97-.8.8l-11.97-4.05c-.2-.07-.41-.03-.58.09l-10.12,7.56c-.42.31-1.02,0-1.01-.51Z"/>
  <path class="st4" d="M830.8,248.65l.16-12.63c0-.21-.1-.4-.27-.52l-10.32-7.29c-.43-.3-.32-.96.18-1.12l12.06-3.76c.2-.06.35-.22.42-.42l3.75-12.07c.16-.5.82-.6,1.12-.18l7.3,10.31c.12.17.32.27.52.27l12.63-.17c.52,0,.83.59.51,1.01l-7.55,10.13c-.12.17-.16.38-.09.58l4.06,11.96c.17.5-.3.97-.8.8l-11.97-4.05c-.2-.07-.41-.03-.58.09l-10.12,7.56c-.42.31-1.02,0-1.01-.51Z"/>
  <path class="st4" d="M863.56,275.12l-2.76-12.33c-.05-.2-.19-.37-.38-.45l-11.72-4.71c-.49-.2-.54-.86-.09-1.13l10.87-6.44c.18-.11.29-.29.31-.5l.86-12.61c.04-.52.65-.78,1.05-.43l9.48,8.35c.16.14.37.19.57.14l12.25-3.08c.51-.13.94.38.73.86l-5.01,11.6c-.08.19-.07.41.04.59l6.71,10.7c.28.44-.07,1.01-.59.96l-12.58-1.18c-.21-.02-.41.06-.54.22l-8.11,9.69c-.34.4-.99.24-1.1-.27Z"/>
  <path class="st4" d="M947.49,228.72l-7.76-9.97c-.13-.16-.33-.25-.54-.24l-12.61.74c-.52.03-.85-.55-.56-.98l7.09-10.46c.12-.17.14-.39.07-.58l-4.6-11.77c-.19-.49.26-.98.76-.84l12.14,3.51c.2.06.41.01.58-.12l9.77-8.01c.4-.33,1.01-.06,1.03.47l.42,12.63c0,.21.12.4.29.51l10.64,6.82c.44.28.37.95-.13,1.13l-11.88,4.3c-.2.07-.34.23-.4.43l-3.19,12.22c-.13.51-.79.64-1.11.23Z"/>
  <path class="st4" d="M781.04,167.39l-8.47-9.38c-.14-.15-.35-.23-.55-.2l-12.53,1.66c-.52.07-.89-.49-.63-.94l6.3-10.95c.1-.18.11-.4.02-.59l-5.45-11.4c-.23-.47.19-1,.7-.89l12.36,2.61c.2.04.41-.02.57-.16l9.16-8.71c.38-.36,1.01-.13,1.06.39l1.34,12.56c.02.21.14.39.33.49l11.11,6.02c.46.25.43.92-.04,1.13l-11.53,5.16c-.19.08-.33.26-.36.46l-2.29,12.43c-.09.51-.74.7-1.09.31Z"/>
  <path class="st4" d="M862.14,166.77l.06-12.64c0-.21-.1-.4-.27-.52l-10.38-7.21c-.43-.3-.33-.96.17-1.12l12.03-3.85c.2-.06.35-.22.41-.42l3.65-12.1c.15-.5.81-.61,1.12-.19l7.38,10.26c.12.17.32.27.53.26l12.63-.27c.52-.01.83.58.52,1l-7.47,10.19c-.12.17-.16.39-.09.58l4.16,11.93c.17.49-.3.97-.79.81l-12-3.96c-.2-.07-.41-.03-.58.1l-10.06,7.64c-.42.32-1.02.02-1.01-.51Z"/>
  <path class="st4" d="M800.17,248.91l-3.37-12.18c-.06-.2-.21-.36-.4-.43l-11.94-4.13c-.49-.17-.58-.84-.14-1.12l10.54-6.96c.17-.11.28-.31.28-.51l.24-12.63c0-.52.62-.81,1.03-.48l9.88,7.87c.16.13.38.17.58.11l12.09-3.68c.5-.15.96.34.78.83l-4.44,11.83c-.07.19-.05.41.07.58l7.23,10.36c.3.43-.02,1.02-.55.99l-12.62-.56c-.21,0-.41.08-.53.25l-7.62,10.08c-.32.42-.97.29-1.11-.21Z"/>
  <path class="st4" d="M692.97,224.16l-.97-12.6c-.02-.21-.13-.39-.31-.5l-10.93-6.34c-.45-.26-.41-.93.08-1.13l11.68-4.82c.19-.08.33-.25.38-.45l2.65-12.35c.11-.51.76-.68,1.1-.28l8.19,9.62c.13.16.34.24.55.22l12.57-1.3c.52-.05.88.51.6.96l-6.62,10.76c-.11.18-.12.4-.04.59l5.12,11.55c.21.48-.22.99-.73.87l-12.28-2.97c-.2-.05-.42,0-.57.14l-9.41,8.44c-.39.35-1.01.1-1.05-.42Z"/>
  <path class="st4" d="M801.9,204.75l2.69-22.8c.04-.38-.1-.75-.38-1l-17.26-15.14c-.72-.63-.4-1.8.53-1.99l22.52-4.49c.37-.07.68-.33.83-.67l9.07-21.09c.38-.87,1.59-.94,2.06-.11l11.23,20.03c.18.33.52.55.9.58l22.86,2.11c.95.09,1.38,1.22.74,1.92l-15.58,16.87c-.26.28-.36.66-.28,1.03l5.06,22.4c.21.93-.74,1.69-1.6,1.3l-20.85-9.61c-.34-.16-.74-.14-1.07.06l-19.74,11.73c-.82.49-1.84-.18-1.73-1.12Z"/>
  <path class="st4" d="M856.6,206.33l17.12-15.3c.28-.25.42-.63.37-1l-2.9-22.78c-.12-.94.89-1.62,1.72-1.14l19.84,11.55c.33.19.73.21,1.07.05l20.77-9.8c.86-.41,1.81.35,1.61,1.28l-4.85,22.44c-.08.37.03.75.29,1.03l15.74,16.72c.65.69.23,1.83-.72,1.93l-22.84,2.32c-.38.04-.71.26-.89.59l-11.04,20.13c-.46.83-1.67.78-2.06-.09l-9.26-21.01c-.15-.35-.47-.59-.84-.66l-22.56-4.28c-.93-.18-1.26-1.35-.55-1.98Z"/>
  <path class="st4" d="M906.69,287.26l5.85-22.2c.1-.37,0-.75-.24-1.04l-14.98-17.4c-.62-.72-.14-1.84.81-1.89l22.92-1.3c.38-.02.72-.23.92-.55l11.93-19.62c.49-.81,1.71-.71,2.05.18l8.32,21.4c.14.35.44.61.81.7l22.35,5.28c.93.22,1.2,1.4.46,2.01l-17.78,14.53c-.29.24-.45.61-.42.98l1.89,22.88c.08.95-.96,1.57-1.76,1.06l-19.31-12.42c-.32-.2-.72-.24-1.06-.09l-21.18,8.86c-.88.37-1.8-.43-1.55-1.35Z"/>
  <path class="st4" d="M717.86,208.06l16.27-16.2c.27-.27.39-.65.32-1.02l-4.12-22.59c-.17-.94.81-1.66,1.65-1.23l20.43,10.47c.34.17.74.17,1.07-.01l20.21-10.9c.84-.45,1.83.25,1.68,1.19l-3.64,22.67c-.06.37.07.75.34,1.01l16.61,15.85c.69.66.32,1.82-.62,1.96l-22.69,3.54c-.37.06-.69.3-.86.64l-9.95,20.69c-.41.86-1.63.87-2.06.02l-10.38-20.48c-.17-.34-.5-.57-.87-.62l-22.76-3.06c-.94-.13-1.33-1.28-.66-1.95Z"/>
  <path class="st4" d="M695.71,290.83l1.91-22.88c.03-.38-.12-.74-.42-.98l-17.77-14.54c-.74-.6-.46-1.79.46-2.01l22.35-5.26c.37-.09.67-.35.81-.7l8.34-21.39c.35-.89,1.56-.99,2.05-.18l11.91,19.63c.2.32.54.53.92.55l22.92,1.32c.95.05,1.42,1.17.8,1.9l-14.99,17.39c-.25.29-.34.68-.24,1.04l5.83,22.21c.24.92-.68,1.72-1.55,1.35l-21.17-8.89c-.35-.15-.75-.11-1.06.09l-19.32,12.4c-.8.51-1.84-.11-1.76-1.06Z"/>
  <g>
    <path class="st6" d="M740.15,341.86v64.92c0,4.21,3.44,7.28,7.5,7.5.46.02.91.07,1.37.11.5.05,1,.11,1.5.17-2.28-.27.61.1,1.02.18,4.39.78,8.71,1.78,12.98,3.08,14.37,4.37,27.72,11.81,39.21,21.47,7.34,6.17,18.01-4.38,10.61-10.61-18.31-15.39-42.26-28.1-66.67-29.4l7.5,7.5v-64.92c0-9.65-15-9.67-15,0h0Z"/>
    <path class="st6" d="M825.28,461.35c.38-.56.8-1.1,1.2-1.65.68-.94-.09.12-.34.44.3-.37.58-.75.89-1.11.74-.89,1.48-1.79,2.24-2.67,4.22-4.86,8.85-9.37,13.8-13.47,14.49-12.01,32.4-19.91,51.26-21.12,4.05-.26,7.5-3.22,7.5-7.5v-72.41c0-9.65-15-9.67-15,0v72.41l7.5-7.5c-32.11,2.07-63.79,20.3-82,47.01-5.45,8,7.54,15.51,12.95,7.57h0Z"/>
  </g>
  <g>
    <path class="st0" d="M767.42,311.42v63.31c0,3.62,2.39,5.96,5.51,7.23-.96-.39-1.55-.69.22.11,1.67.76,3.33,1.53,4.98,2.35,5.03,2.5,9.93,5.27,14.61,8.37,8.8,5.83,20.37,14.86,20.78,26.1.35,9.62,15.35,9.67,15,0-.95-25.91-30.28-42.7-51.61-51.4l5.51,7.23v-63.31c0-9.65-15-9.67-15,0h0Z"/>
    <path class="st0" d="M859.57,312.42c0,21.1,0,42.21,0,63.31l5.51-7.23c-21.33,8.69-50.66,25.49-51.61,51.4-.35,9.65,14.65,9.64,15,0,.41-11.24,11.98-20.27,20.78-26.1,4.58-3.04,9.37-5.76,14.29-8.21,1.68-.84,3.39-1.64,5.1-2.42s1.82-.77.42-.2c3.11-1.27,5.51-3.65,5.51-7.23,0-21.1,0-42.21,0-63.31,0-9.65-15-9.67-15,0h0Z"/>
  </g>
  <path class="st0" d="M829.39,414.64v-84.58c0-9.65-15-9.67-15,0v84.58c0,9.65,15,9.67,15,0h0Z"/>
  <circle class="st0" cx="821.89" cy="330.93" r="22.73"/>
  <text class="st5" transform="translate(793.29 294.1)"><tspan x="0" y="0">2017</tspan></text>
  <text class="st1" transform="translate(442.91 823.6)"><tspan x="0" y="0">SULTAN OKULLARI</tspan></text>
  <text class="st2" transform="translate(437.9 866.3)"><tspan x="0" y="0">GELECEĞE YÖN VEREN ‘DEĞER’İN ADI</tspan></text>
</svg>